<svg xmlns="http://www.w3.org/2000/svg" xmlns:xlink="http://www.w3.org/1999/xlink" width="500" zoomAndPan="magnify" viewBox="0 0 375 374.999991" height="500" preserveAspectRatio="xMidYMid meet" version="1.0"><defs><g/><clipPath id="84859ef404"><path d="M 49.753906 53.523438 L 325.003906 53.523438 L 325.003906 253.773438 L 49.753906 253.773438 Z M 49.753906 53.523438 " clip-rule="nonzero"/></clipPath><clipPath id="a1c72719ca"><path d="M 57.113281 256.945312 L 329.804688 256.945312 L 329.804688 318.558594 L 57.113281 318.558594 Z M 57.113281 256.945312 " clip-rule="nonzero"/></clipPath><clipPath id="dfc85bc559"><path d="M 314.027344 256.945312 L 329.785156 272.703125 L 329.785156 302.800781 L 314.027344 318.558594 L 72.871094 318.558594 L 57.113281 302.800781 L 57.113281 272.703125 L 72.871094 256.945312 Z M 314.027344 256.945312 " clip-rule="nonzero"/></clipPath><clipPath id="806f384504"><path d="M 57.128906 256.945312 L 330 256.945312 L 330 318.445312 L 57.128906 318.445312 Z M 57.128906 256.945312 " clip-rule="nonzero"/></clipPath><clipPath id="818a10282d"><path d="M 314.007812 256.945312 L 329.765625 272.699219 L 329.765625 302.792969 L 314.007812 318.550781 L 72.886719 318.550781 L 57.128906 302.792969 L 57.128906 272.699219 L 72.886719 256.945312 Z M 314.007812 256.945312 " clip-rule="nonzero"/></clipPath></defs><g clip-path="url(#84859ef404)"><path fill="#000000" d="M 100.066406 53.523438 L 154.769531 101.070312 L 154.769531 104.652344 C 153.75 105.164062 153.234375 105.671875 152.726562 106.183594 L 152.214844 105.671875 C 148.125 101.582031 141.476562 101.582031 137.902344 105.671875 L 128.699219 114.363281 C 127.164062 116.410156 126.144531 118.457031 125.632812 121.011719 L 123.078125 120.5 L 121.542969 111.300781 L 111.832031 110.785156 L 110.8125 101.070312 L 101.609375 100.050781 L 101.097656 90.332031 L 92.40625 88.796875 L 92.914062 80.105469 L 84.726562 78.574219 L 85.238281 70.390625 Z M 270.828125 223.257812 L 292.8125 187.46875 L 298.433594 191.050781 L 276.449219 226.832031 Z M 277.984375 227.859375 L 299.96875 192.070312 C 309.171875 197.179688 320.929688 204.34375 325.023438 212.011719 L 318.375 222.230469 C 314.792969 218.140625 313.265625 217.121094 308.148438 214.054688 C 312.238281 218.148438 315.304688 222.230469 316.324219 226.328125 L 310.1875 235.53125 C 307.628906 234.003906 306.09375 232.976562 303.03125 231.957031 C 305.074219 234.003906 307.628906 236.046875 308.140625 239.113281 L 302.003906 248.824219 C 297.410156 239.625 286.675781 233.488281 277.984375 227.859375 Z M 263.671875 188.492188 C 264.691406 188.492188 265.207031 189.003906 265.714844 189.003906 C 273.382812 192.070312 281.566406 190.023438 285.65625 185.421875 C 287.191406 183.894531 288.722656 184.914062 289.75 185.421875 L 291.792969 186.441406 L 280.546875 204.335938 L 269.296875 222.230469 L 267.253906 221.210938 C 266.226562 220.1875 265.714844 218.65625 266.226562 216.101562 C 267.761719 210.472656 265.714844 203.316406 260.089844 198.207031 C 260.089844 198.207031 259.578125 197.695312 259.070312 197.1875 C 260.605469 196.167969 262.132812 194.121094 262.644531 191.566406 Z M 303.035156 132.769531 L 306.101562 133.796875 L 305.589844 131.238281 L 316.324219 122.039062 C 310.1875 119.992188 303.546875 119.992188 295.363281 123.058594 Z M 286.167969 144.527344 L 280.539062 137.371094 L 287.695312 131.742188 L 293.316406 138.902344 Z M 272.871094 136.859375 C 278.492188 131.234375 284.121094 125.613281 289.742188 119.476562 L 305.074219 138.90625 L 313.769531 142.488281 C 317.347656 139.417969 321.433594 136.351562 325.015625 133.285156 C 325.015625 140.953125 320.925781 154.246094 312.746094 156.292969 C 309.171875 157.316406 303.035156 156.292969 296.390625 155.273438 C 289.742188 153.738281 282.585938 152.207031 275.9375 151.179688 L 266.226562 153.738281 C 266.226562 153.226562 266.226562 152.199219 266.226562 151.179688 L 263.160156 139.421875 Z M 287.1875 147.082031 L 295.878906 139.925781 C 296.390625 139.417969 296.390625 138.902344 295.878906 137.878906 L 289.230469 129.1875 C 288.722656 128.679688 287.695312 128.679688 287.1875 129.1875 L 278.492188 136.34375 C 277.984375 136.855469 277.46875 137.371094 277.984375 137.878906 L 285.140625 146.574219 C 285.652344 147.59375 286.675781 147.59375 287.1875 147.082031 Z M 293.324219 69.882812 C 295.367188 76.527344 293.832031 84.707031 288.210938 90.332031 C 282.589844 96.46875 273.898438 98.003906 266.226562 95.960938 L 248.839844 114.363281 L 248.332031 114.363281 L 239.636719 105.671875 C 238.617188 104.136719 236.574219 103.117188 235.039062 102.605469 L 253.441406 83.6875 C 250.371094 76.019531 251.90625 67.328125 257.535156 61.191406 C 262.644531 55.5625 270.316406 53.523438 277.472656 55.050781 L 275.429688 57.097656 L 265.199219 68.347656 L 266.734375 73.972656 L 268.78125 80.109375 L 274.917969 81.644531 L 281.054688 83.183594 L 291.277344 71.933594 Z M 126.144531 207.410156 L 94.957031 223.257812 C 92.398438 224.792969 92.398438 227.859375 93.933594 230.414062 C 95.472656 232.96875 98.535156 233.996094 100.582031 232.96875 L 106.203125 241.664062 L 85.753906 253.9375 L 80.132812 244.734375 C 82.6875 243.714844 83.195312 240.132812 81.667969 237.578125 C 80.132812 235.023438 77.066406 234.003906 74.511719 235.53125 C 70.417969 227.867188 66.84375 221.730469 64.796875 216.617188 C 62.753906 212.015625 62.242188 207.925781 61.734375 203.324219 C 61.734375 200.769531 61.734375 195.65625 63.269531 191.566406 C 65.824219 184.917969 69.914062 179.296875 72.472656 181.34375 C 72.980469 182.371094 69.914062 190.035156 72.980469 197.703125 C 75.027344 203.324219 82.183594 212.015625 86.273438 209.460938 L 114.390625 190.546875 L 114.390625 191.566406 C 115.929688 197.1875 121.550781 200.257812 127.175781 199.230469 L 127.6875 198.722656 C 128.195312 199.75 128.707031 200.769531 129.222656 201.277344 L 128.710938 201.789062 C 127.164062 203.324219 126.144531 205.363281 126.144531 207.410156 Z M 111.824219 149.640625 L 97 148.101562 L 96.492188 153.730469 C 96.492188 156.796875 93.425781 159.351562 89.84375 159.351562 L 74.503906 157.816406 C 73.996094 157.816406 73.484375 157.304688 72.96875 157.304688 L 72.96875 158.324219 C 72.457031 160.371094 70.414062 161.90625 68.367188 161.90625 C 66.320312 161.398438 64.277344 159.859375 64.792969 157.304688 L 65.300781 151.167969 L 52.519531 150.148438 C 50.980469 149.640625 49.960938 148.617188 49.960938 147.082031 C 50.472656 146.058594 51.5 145.039062 52.519531 145.039062 L 65.8125 146.574219 L 66.320312 141.972656 L 66.832031 136.859375 L 53.539062 135.835938 C 52.519531 135.324219 51.492188 134.300781 51.492188 132.769531 C 51.492188 131.75 53.027344 130.722656 54.046875 130.722656 L 67.339844 132.253906 L 67.851562 126.117188 C 68.359375 124.070312 69.898438 122.03125 72.453125 122.542969 C 74.5 122.542969 76.542969 124.585938 76.027344 127.140625 L 76.027344 127.652344 C 76.539062 127.652344 77.054688 127.652344 77.5625 127.652344 L 92.902344 129.1875 C 96.484375 129.699219 99.039062 132.769531 98.53125 136.34375 L 98.019531 141.972656 L 113.359375 143.507812 Z M 105.175781 62.214844 C 104.152344 61.195312 102.113281 61.195312 100.574219 62.726562 C 99.550781 64.261719 99.550781 66.308594 101.085938 67.328125 C 102.621094 68.347656 104.667969 68.347656 105.6875 66.816406 C 106.714844 65.789062 106.714844 63.746094 105.175781 62.214844 Z M 105.175781 62.214844 " fill-opacity="1" fill-rule="evenodd"/></g><path fill="#000000" d="M 251.394531 169.578125 C 251.394531 170.089844 251.394531 171.113281 250.886719 172.136719 L 257.023438 173.671875 C 259.070312 174.179688 260.089844 176.226562 259.578125 177.761719 L 256.507812 190.03125 C 255.996094 192.074219 253.953125 193.101562 251.90625 192.585938 L 245.769531 191.050781 C 244.238281 195.140625 242.195312 198.714844 239.632812 202.296875 L 243.722656 206.390625 C 245.257812 207.917969 245.257812 210.480469 243.722656 211.5 L 235.03125 220.703125 C 233.496094 221.730469 231.449219 221.730469 229.917969 220.703125 L 225.320312 216.101562 C 222.253906 218.65625 218.160156 220.703125 214.070312 222.75 L 215.605469 228.886719 C 216.117188 230.421875 215.097656 232.46875 213.050781 232.976562 L 201.292969 236.042969 C 199.246094 236.558594 197.203125 235.53125 196.691406 233.996094 L 195.15625 227.859375 C 191.0625 228.375 186.464844 228.375 182.371094 227.859375 L 180.328125 233.996094 C 179.816406 235.527344 178.28125 236.550781 176.234375 236.042969 L 163.96875 232.976562 C 162.429688 232.46875 160.902344 230.421875 161.410156 228.886719 L 162.949219 222.75 C 159.371094 220.703125 155.28125 218.65625 151.699219 216.101562 L 147.609375 220.703125 C 146.070312 221.730469 144.027344 221.730469 142.496094 220.703125 L 133.292969 211.5 C 132.273438 210.472656 132.273438 207.917969 133.292969 206.390625 L 137.894531 202.296875 C 135.339844 198.714844 133.292969 195.140625 131.25 191.050781 L 125.628906 192.585938 C 123.582031 193.09375 121.535156 192.074219 121.027344 190.03125 L 117.960938 177.761719 C 117.453125 176.226562 118.472656 174.179688 120.515625 173.671875 L 126.144531 172.136719 C 126.144531 171.113281 126.144531 170.089844 126.144531 169.578125 L 139.949219 163.441406 C 139.949219 168.042969 140.457031 173.15625 141.484375 177.761719 C 148.640625 203.832031 175.226562 219.171875 201.300781 212.527344 C 223.796875 206.394531 238.109375 185.429688 237.089844 163.441406 Z M 251.394531 169.578125 " fill-opacity="1" fill-rule="evenodd"/><path fill="#000000" d="M 216.121094 108.738281 C 219.1875 110.785156 222.769531 112.320312 225.324219 114.359375 L 229.925781 110.265625 C 231.460938 108.730469 233.507812 108.730469 235.039062 110.265625 L 243.730469 118.960938 C 245.265625 120.496094 245.265625 122.542969 243.730469 124.070312 L 239.636719 128.671875 C 242.195312 131.738281 244.238281 135.828125 245.777344 139.921875 L 251.914062 138.382812 C 253.957031 137.875 256.003906 138.894531 256.515625 140.941406 L 259.585938 152.699219 C 260.09375 154.742188 259.074219 156.789062 257.03125 157.300781 L 250.894531 158.835938 L 251.402344 160.878906 L 259.585938 165.992188 L 188.523438 134.292969 L 117.96875 165.992188 L 126.148438 160.878906 L 126.148438 158.835938 L 120.523438 157.300781 C 118.476562 156.78125 117.457031 154.742188 117.96875 152.699219 L 121.03125 140.941406 C 121.542969 138.894531 123.589844 137.875 125.632812 138.382812 L 131.253906 139.921875 C 133.300781 135.828125 135.347656 132.246094 137.902344 128.671875 L 133.300781 124.070312 C 132.28125 122.535156 132.28125 120.496094 133.300781 118.960938 L 142.503906 110.265625 C 144.039062 108.730469 146.085938 108.730469 147.613281 110.265625 L 151.707031 114.359375 C 154.769531 112.3125 157.84375 110.777344 161.417969 108.738281 L 161.417969 68.855469 L 154.769531 68.855469 L 154.769531 61.191406 L 174.203125 61.191406 C 174.203125 80.613281 174.203125 99.535156 174.203125 118.960938 C 158.351562 124.070312 146.59375 136.34375 141.992188 151.167969 L 188.523438 123.050781 L 235.042969 151.167969 C 230.441406 135.320312 218.175781 123.5625 203.34375 118.960938 C 203.34375 99.535156 203.34375 80.613281 203.34375 61.191406 L 222.769531 61.191406 L 222.769531 68.855469 L 216.121094 68.855469 Z M 216.121094 108.738281 " fill-opacity="1" fill-rule="evenodd"/><path fill="#000000" d="M 191.582031 181.335938 L 203.847656 181.335938 L 203.847656 193.605469 L 191.582031 193.605469 Z M 191.582031 163.441406 L 203.847656 163.441406 L 203.847656 175.714844 L 191.582031 175.714844 Z M 173.6875 163.441406 L 185.953125 163.441406 L 185.953125 175.714844 L 173.6875 175.714844 Z M 173.6875 181.335938 L 185.953125 181.335938 L 185.953125 193.605469 L 173.6875 193.605469 Z M 173.6875 181.335938 " fill-opacity="1" fill-rule="evenodd"/><path fill="#000000" d="M 144.03125 161.914062 L 188.515625 143.5 L 233.5 161.914062 L 188.515625 148.617188 Z M 144.03125 161.914062 " fill-opacity="1" fill-rule="evenodd"/><g clip-path="url(#a1c72719ca)"><g clip-path="url(#dfc85bc559)"><path fill="#efefeb" d="M 57.113281 256.945312 L 329.804688 256.945312 L 329.804688 318.558594 L 57.113281 318.558594 Z M 57.113281 256.945312 " fill-opacity="1" fill-rule="nonzero"/></g></g><g clip-path="url(#806f384504)"><g clip-path="url(#818a10282d)"><path stroke-linecap="butt" transform="matrix(0.75, 0, 0, 0.75, 57.13053, 256.944418)" fill="none" stroke-linejoin="miter" d="M 342.503066 0.0011933 L 363.513484 21.006403 L 363.513484 61.131406 L 342.503066 82.141824 L 21.008254 82.141824 L -0.0021644 61.131406 L -0.0021644 21.006403 L 21.008254 0.0011933 Z M 342.503066 0.0011933 " stroke="#000000" stroke-width="8" stroke-opacity="1" stroke-miterlimit="4"/></g></g><g fill="#000000" fill-opacity="1"><g transform="translate(117.136814, 297.295149)"><g><path d="M 26.9375 -18.890625 L 26.9375 -24.171875 L 15.578125 -24.171875 L 15.578125 -18.890625 L 17.125 -18.203125 L 17.125 -14.296875 L 11.296875 -14.296875 L 11.296875 -18.203125 L 12.875 -18.890625 L 12.875 -24.171875 L 1.515625 -24.171875 L 1.515625 -18.890625 L 4.140625 -18.203125 L 4.140625 -5.9375 L 1.515625 -5.25 L 1.515625 0 L 12.875 0 L 12.875 -5.25 L 11.296875 -5.9375 L 11.296875 -10.15625 L 17.125 -10.15625 L 17.125 -5.9375 L 15.578125 -5.25 L 15.578125 0 L 26.9375 0 L 26.9375 -5.25 L 24.3125 -5.9375 L 24.3125 -18.203125 Z M 26.9375 -18.890625 "/></g></g></g><g fill="#000000" fill-opacity="1"><g transform="translate(146.178043, 297.295149)"><g><path d="M 23.171875 -5.9375 L 18.515625 -24.171875 L 4.5625 -24.171875 L 4.5625 -18.890625 L 6.796875 -18.203125 L 3.28125 -5.9375 L 0.625 -5.25 L 0.625 0 L 10.984375 0 L 10.984375 -5.25 L 9.28125 -5.9375 L 9.875 -8.078125 L 15.09375 -8.078125 L 15.71875 -5.9375 L 13.875 -5.25 L 13.875 0 L 26.140625 0 L 26.140625 -5.25 Z M 12.390625 -17.640625 L 13.953125 -12.21875 L 10.875 -12.21875 Z M 12.390625 -17.640625 "/></g></g></g><g fill="#000000" fill-opacity="1"><g transform="translate(173.458162, 297.295149)"><g><path d="M 16.4375 -24.171875 L 16.4375 -18.890625 L 19.0625 -18.203125 L 19.0625 -11.25 L 11.875 -24.171875 L 1.515625 -24.171875 L 1.515625 -18.890625 L 4.140625 -18.203125 L 4.140625 -5.9375 L 1.515625 -5.25 L 1.515625 0 L 12.8125 0 L 12.8125 -5.25 L 10.1875 -5.9375 L 10.1875 -13.46875 L 18.15625 0 L 25.140625 0 L 25.140625 -18.203125 L 27.765625 -18.890625 L 27.765625 -24.171875 Z M 16.4375 -24.171875 "/></g></g></g><g fill="#000000" fill-opacity="1"><g transform="translate(202.326734, 297.295149)"><g><path d="M 24.34375 -5.1875 L 24.34375 -19.171875 L 18.296875 -24.171875 L 1.515625 -24.171875 L 1.515625 -18.890625 L 4.140625 -18.203125 L 4.140625 -5.9375 L 1.515625 -5.25 L 1.515625 0 L 18.125 0 Z M 11.296875 -18.203125 L 15.75 -18.203125 L 17.203125 -16.984375 L 17.203125 -7.1875 L 15.671875 -5.9375 L 11.296875 -5.9375 Z M 11.296875 -18.203125 "/></g></g></g><g fill="#000000" fill-opacity="1"><g transform="translate(228.709032, 297.295149)"><g><path d="M 14.703125 -18.890625 L 14.703125 -24.171875 L 2.34375 -24.171875 L 2.34375 -18.890625 L 4.96875 -18.203125 L 4.96875 -5.9375 L 2.34375 -5.25 L 2.34375 0 L 14.703125 0 L 14.703125 -5.25 L 12.09375 -5.9375 L 12.09375 -18.203125 Z M 14.703125 -18.890625 "/></g></g></g><g fill="#000000" fill-opacity="1"><g transform="translate(246.354811, 297.295149)"><g><path d="M 21.859375 -4.3125 L 21.859375 -19.953125 L 16.8125 -24.171875 L 6.5625 -24.171875 L 1.515625 -19.953125 L 1.515625 -4.3125 L 6.734375 0 L 13.328125 0 L 16.8125 5.9375 L 23.375 5.9375 L 23.375 0.34375 L 21.546875 0 L 19.859375 -2.65625 Z M 13.8125 -18.203125 L 14.75 -17.46875 L 14.75 -6.734375 L 13.78125 -5.9375 L 9.59375 -5.9375 L 8.640625 -6.734375 L 8.640625 -17.46875 L 9.5625 -18.203125 Z M 13.8125 -18.203125 "/></g></g></g><g fill="#000000" fill-opacity="1"><g transform="translate(144.781065, 336.749978)"><g><path d="M 1.765625 -6.421875 C 1.847656 -6.421875 1.988281 -6.421875 2.1875 -6.421875 C 2.394531 -6.429688 2.628906 -6.4375 2.890625 -6.4375 C 3.160156 -6.445312 3.429688 -6.453125 3.703125 -6.453125 C 3.972656 -6.453125 4.21875 -6.457031 4.4375 -6.46875 C 4.664062 -6.476562 4.835938 -6.484375 4.953125 -6.484375 C 4.984375 -6.234375 5.023438 -5.984375 5.078125 -5.734375 C 5.128906 -5.492188 5.179688 -5.265625 5.234375 -5.046875 C 5.210938 -5.023438 5.175781 -5.007812 5.125 -5 C 5.070312 -4.988281 5.03125 -4.984375 5 -4.984375 C 4.914062 -4.984375 4.863281 -5.007812 4.84375 -5.0625 C 4.738281 -5.34375 4.609375 -5.578125 4.453125 -5.765625 C 4.304688 -5.953125 4.085938 -6.046875 3.796875 -6.046875 L 2.984375 -6.046875 C 2.867188 -6.046875 2.765625 -6.039062 2.671875 -6.03125 C 2.578125 -6.019531 2.515625 -5.988281 2.484375 -5.9375 C 2.460938 -5.882812 2.453125 -5.816406 2.453125 -5.734375 C 2.453125 -5.660156 2.453125 -5.566406 2.453125 -5.453125 C 2.453125 -5.441406 2.453125 -5.425781 2.453125 -5.40625 C 2.453125 -5.382812 2.453125 -5.363281 2.453125 -5.34375 L 2.453125 -3.59375 C 2.453125 -3.5625 2.492188 -3.535156 2.578125 -3.515625 C 2.660156 -3.492188 2.757812 -3.484375 2.875 -3.484375 L 3.375 -3.484375 C 3.570312 -3.484375 3.722656 -3.5 3.828125 -3.53125 C 3.929688 -3.570312 4.007812 -3.640625 4.0625 -3.734375 C 4.125 -3.835938 4.179688 -3.984375 4.234375 -4.171875 C 4.253906 -4.222656 4.296875 -4.25 4.359375 -4.25 C 4.441406 -4.25 4.503906 -4.234375 4.546875 -4.203125 L 4.546875 -2.3125 C 4.535156 -2.3125 4.507812 -2.304688 4.46875 -2.296875 C 4.4375 -2.296875 4.40625 -2.296875 4.375 -2.296875 C 4.28125 -2.296875 4.234375 -2.316406 4.234375 -2.359375 C 4.171875 -2.585938 4.109375 -2.738281 4.046875 -2.8125 C 3.984375 -2.894531 3.929688 -2.941406 3.890625 -2.953125 C 3.773438 -3.003906 3.53125 -3.03125 3.15625 -3.03125 C 3.0625 -3.03125 2.957031 -3.023438 2.84375 -3.015625 C 2.738281 -3.015625 2.644531 -3.003906 2.5625 -2.984375 C 2.488281 -2.960938 2.453125 -2.929688 2.453125 -2.890625 L 2.453125 -1.375 C 2.453125 -1.375 2.453125 -1.367188 2.453125 -1.359375 C 2.453125 -1.328125 2.453125 -1.257812 2.453125 -1.15625 C 2.453125 -1.0625 2.457031 -0.960938 2.46875 -0.859375 C 2.476562 -0.753906 2.492188 -0.671875 2.515625 -0.609375 C 2.546875 -0.546875 2.628906 -0.492188 2.765625 -0.453125 C 2.898438 -0.421875 3.03125 -0.40625 3.15625 -0.40625 L 3.796875 -0.40625 C 3.984375 -0.40625 4.15625 -0.429688 4.3125 -0.484375 C 4.46875 -0.535156 4.597656 -0.617188 4.703125 -0.734375 C 4.816406 -0.835938 4.910156 -0.960938 4.984375 -1.109375 C 5.066406 -1.253906 5.148438 -1.4375 5.234375 -1.65625 C 5.253906 -1.695312 5.300781 -1.71875 5.375 -1.71875 C 5.425781 -1.71875 5.484375 -1.710938 5.546875 -1.703125 C 5.617188 -1.691406 5.660156 -1.675781 5.671875 -1.65625 C 5.609375 -1.488281 5.539062 -1.300781 5.46875 -1.09375 C 5.394531 -0.882812 5.328125 -0.679688 5.265625 -0.484375 C 5.210938 -0.296875 5.171875 -0.128906 5.140625 0.015625 C 5.078125 0.015625 4.921875 0.015625 4.671875 0.015625 C 4.429688 0.015625 4.140625 0.015625 3.796875 0.015625 C 3.460938 0.015625 3.109375 0.015625 2.734375 0.015625 C 2.367188 0.015625 2.019531 0.015625 1.6875 0.015625 C 1.351562 0.015625 1.066406 0.015625 0.828125 0.015625 C 0.585938 0.0234375 0.4375 0.03125 0.375 0.03125 C 0.351562 0 0.335938 -0.0546875 0.328125 -0.140625 C 0.328125 -0.234375 0.34375 -0.296875 0.375 -0.328125 C 0.414062 -0.335938 0.484375 -0.347656 0.578125 -0.359375 C 0.671875 -0.367188 0.757812 -0.382812 0.84375 -0.40625 C 0.9375 -0.425781 0.988281 -0.457031 1 -0.5 C 1.039062 -0.601562 1.0625 -0.726562 1.0625 -0.875 C 1.070312 -1.03125 1.078125 -1.210938 1.078125 -1.421875 L 1.078125 -5.015625 C 1.078125 -5.222656 1.070312 -5.398438 1.0625 -5.546875 C 1.0625 -5.703125 1.039062 -5.832031 1 -5.9375 C 0.988281 -5.976562 0.9375 -6.007812 0.84375 -6.03125 C 0.757812 -6.050781 0.671875 -6.0625 0.578125 -6.0625 C 0.484375 -6.070312 0.414062 -6.078125 0.375 -6.078125 C 0.34375 -6.109375 0.328125 -6.171875 0.328125 -6.265625 C 0.335938 -6.359375 0.351562 -6.421875 0.375 -6.453125 C 0.59375 -6.441406 0.828125 -6.429688 1.078125 -6.421875 C 1.328125 -6.421875 1.554688 -6.421875 1.765625 -6.421875 Z M 1.765625 -6.421875 "/></g></g></g><g fill="#000000" fill-opacity="1"><g transform="translate(158.648847, 336.749978)"><g><path d="M 2.609375 -6.546875 C 2.898438 -6.546875 3.171875 -6.515625 3.421875 -6.453125 C 3.671875 -6.398438 3.945312 -6.335938 4.25 -6.265625 C 4.28125 -6.003906 4.300781 -5.742188 4.3125 -5.484375 C 4.332031 -5.222656 4.347656 -4.945312 4.359375 -4.65625 C 4.328125 -4.613281 4.289062 -4.59375 4.25 -4.59375 C 4.25 -4.59375 4.242188 -4.59375 4.234375 -4.59375 C 4.210938 -4.59375 4.160156 -4.59375 4.078125 -4.59375 C 4.003906 -4.59375 3.960938 -4.613281 3.953125 -4.65625 C 3.941406 -4.800781 3.898438 -4.957031 3.828125 -5.125 C 3.765625 -5.289062 3.675781 -5.445312 3.5625 -5.59375 C 3.445312 -5.75 3.3125 -5.875 3.15625 -5.96875 C 3.007812 -6.070312 2.84375 -6.125 2.65625 -6.125 C 2.53125 -6.125 2.40625 -6.097656 2.28125 -6.046875 C 2.15625 -6.003906 2.046875 -5.921875 1.953125 -5.796875 C 1.867188 -5.671875 1.828125 -5.5 1.828125 -5.28125 C 1.828125 -5.082031 1.90625 -4.882812 2.0625 -4.6875 C 2.21875 -4.5 2.398438 -4.320312 2.609375 -4.15625 C 2.828125 -4 3.035156 -3.851562 3.234375 -3.71875 C 3.453125 -3.582031 3.671875 -3.429688 3.890625 -3.265625 C 4.117188 -3.097656 4.304688 -2.894531 4.453125 -2.65625 C 4.609375 -2.414062 4.6875 -2.097656 4.6875 -1.703125 C 4.6875 -1.359375 4.582031 -1.046875 4.375 -0.765625 C 4.164062 -0.492188 3.898438 -0.28125 3.578125 -0.125 C 3.253906 0.0195312 2.910156 0.09375 2.546875 0.09375 C 2.265625 0.09375 1.957031 0.0664062 1.625 0.015625 C 1.289062 -0.0351562 0.976562 -0.09375 0.6875 -0.15625 C 0.65625 -0.300781 0.625 -0.488281 0.59375 -0.71875 C 0.5625 -0.945312 0.53125 -1.164062 0.5 -1.375 C 0.476562 -1.582031 0.460938 -1.726562 0.453125 -1.8125 C 0.472656 -1.851562 0.519531 -1.882812 0.59375 -1.90625 C 0.664062 -1.9375 0.710938 -1.953125 0.734375 -1.953125 C 0.816406 -1.953125 0.863281 -1.925781 0.875 -1.875 C 0.894531 -1.75 0.945312 -1.597656 1.03125 -1.421875 C 1.113281 -1.242188 1.222656 -1.066406 1.359375 -0.890625 C 1.492188 -0.722656 1.65625 -0.582031 1.84375 -0.46875 C 2.03125 -0.363281 2.234375 -0.3125 2.453125 -0.3125 C 2.703125 -0.3125 2.921875 -0.378906 3.109375 -0.515625 C 3.304688 -0.660156 3.40625 -0.910156 3.40625 -1.265625 C 3.40625 -1.429688 3.351562 -1.59375 3.25 -1.75 C 3.144531 -1.90625 3.015625 -2.050781 2.859375 -2.1875 C 2.703125 -2.320312 2.539062 -2.445312 2.375 -2.5625 C 2.207031 -2.675781 2.066406 -2.769531 1.953125 -2.84375 C 1.710938 -3.007812 1.484375 -3.175781 1.265625 -3.34375 C 1.046875 -3.507812 0.867188 -3.703125 0.734375 -3.921875 C 0.597656 -4.148438 0.53125 -4.4375 0.53125 -4.78125 C 0.53125 -5.125 0.632812 -5.425781 0.84375 -5.6875 C 1.050781 -5.945312 1.3125 -6.15625 1.625 -6.3125 C 1.945312 -6.46875 2.273438 -6.546875 2.609375 -6.546875 Z M 2.609375 -6.546875 "/></g></g></g><g fill="#000000" fill-opacity="1"><g transform="translate(171.726941, 336.749978)"><g><path d="M 4.71875 -6.421875 C 4.945312 -6.421875 5.125 -6.4375 5.25 -6.46875 C 5.375 -6.5 5.46875 -6.523438 5.53125 -6.546875 C 5.601562 -6.578125 5.671875 -6.59375 5.734375 -6.59375 C 5.773438 -6.59375 5.796875 -6.59375 5.796875 -6.59375 C 5.804688 -6.59375 5.820312 -6.582031 5.84375 -6.5625 L 6.109375 -4.78125 C 6.097656 -4.769531 6.0625 -4.753906 6 -4.734375 C 5.9375 -4.710938 5.878906 -4.703125 5.828125 -4.703125 C 5.765625 -4.703125 5.734375 -4.722656 5.734375 -4.765625 C 5.703125 -4.972656 5.632812 -5.171875 5.53125 -5.359375 C 5.425781 -5.546875 5.300781 -5.695312 5.15625 -5.8125 C 5.007812 -5.925781 4.851562 -5.984375 4.6875 -5.984375 L 3.78125 -5.984375 L 3.78125 -1.421875 C 3.78125 -1.210938 3.78125 -1.03125 3.78125 -0.875 C 3.789062 -0.726562 3.816406 -0.601562 3.859375 -0.5 C 3.878906 -0.457031 3.929688 -0.421875 4.015625 -0.390625 C 4.097656 -0.367188 4.1875 -0.351562 4.28125 -0.34375 C 4.375 -0.332031 4.441406 -0.320312 4.484375 -0.3125 C 4.503906 -0.28125 4.515625 -0.222656 4.515625 -0.140625 C 4.515625 -0.0546875 4.503906 0.00390625 4.484375 0.046875 C 4.296875 0.0234375 4.066406 0.0078125 3.796875 0 C 3.535156 -0.0195312 3.300781 -0.03125 3.09375 -0.03125 C 2.882812 -0.03125 2.648438 -0.0195312 2.390625 0 C 2.128906 0.0078125 1.898438 0.0234375 1.703125 0.046875 C 1.691406 0.00390625 1.679688 -0.0546875 1.671875 -0.140625 C 1.671875 -0.222656 1.679688 -0.28125 1.703125 -0.3125 C 1.753906 -0.320312 1.820312 -0.332031 1.90625 -0.34375 C 2 -0.351562 2.085938 -0.367188 2.171875 -0.390625 C 2.265625 -0.421875 2.316406 -0.457031 2.328125 -0.5 C 2.367188 -0.601562 2.390625 -0.726562 2.390625 -0.875 C 2.398438 -1.03125 2.40625 -1.210938 2.40625 -1.421875 L 2.40625 -5.984375 L 1.5 -5.984375 C 1.332031 -5.984375 1.175781 -5.925781 1.03125 -5.8125 C 0.882812 -5.695312 0.757812 -5.546875 0.65625 -5.359375 C 0.5625 -5.171875 0.492188 -4.972656 0.453125 -4.765625 C 0.453125 -4.722656 0.421875 -4.703125 0.359375 -4.703125 C 0.316406 -4.703125 0.257812 -4.710938 0.1875 -4.734375 C 0.125 -4.753906 0.0859375 -4.769531 0.078125 -4.78125 L 0.34375 -6.5625 C 0.363281 -6.582031 0.378906 -6.59375 0.390625 -6.59375 C 0.398438 -6.59375 0.421875 -6.59375 0.453125 -6.59375 C 0.515625 -6.59375 0.578125 -6.578125 0.640625 -6.546875 C 0.710938 -6.523438 0.8125 -6.5 0.9375 -6.46875 C 1.0625 -6.4375 1.238281 -6.421875 1.46875 -6.421875 Z M 4.71875 -6.421875 "/></g></g></g><g fill="#000000" fill-opacity="1"><g transform="translate(185.914596, 336.749978)"><g/></g></g><g fill="#000000" fill-opacity="1"><g transform="translate(196.833546, 336.749978)"><g><path d="M 4.78125 -1.875 C 4.75 -1.757812 4.703125 -1.609375 4.640625 -1.421875 C 4.585938 -1.234375 4.53125 -1.039062 4.46875 -0.84375 C 4.40625 -0.644531 4.34375 -0.460938 4.28125 -0.296875 C 4.226562 -0.140625 4.195312 -0.0390625 4.1875 0 L 0.625 0 C 0.601562 -0.03125 0.585938 -0.0625 0.578125 -0.09375 C 0.566406 -0.125 0.554688 -0.15625 0.546875 -0.1875 C 0.804688 -0.457031 1.046875 -0.710938 1.265625 -0.953125 C 1.484375 -1.191406 1.695312 -1.445312 1.90625 -1.71875 C 2.125 -1.988281 2.347656 -2.300781 2.578125 -2.65625 C 2.804688 -3.007812 2.957031 -3.328125 3.03125 -3.609375 C 3.101562 -3.898438 3.140625 -4.15625 3.140625 -4.375 C 3.140625 -4.59375 3.085938 -4.785156 2.984375 -4.953125 C 2.890625 -5.117188 2.765625 -5.253906 2.609375 -5.359375 C 2.453125 -5.460938 2.28125 -5.515625 2.09375 -5.515625 C 1.875 -5.515625 1.6875 -5.457031 1.53125 -5.34375 C 1.375 -5.238281 1.25 -5.128906 1.15625 -5.015625 C 1.0625 -4.898438 1.003906 -4.832031 0.984375 -4.8125 C 0.953125 -4.8125 0.90625 -4.832031 0.84375 -4.875 C 0.789062 -4.914062 0.765625 -4.972656 0.765625 -5.046875 C 0.804688 -5.140625 0.878906 -5.253906 0.984375 -5.390625 C 1.097656 -5.523438 1.238281 -5.660156 1.40625 -5.796875 C 1.570312 -5.929688 1.765625 -6.039062 1.984375 -6.125 C 2.203125 -6.21875 2.445312 -6.265625 2.71875 -6.265625 C 3.03125 -6.265625 3.3125 -6.203125 3.5625 -6.078125 C 3.820312 -5.953125 4.03125 -5.765625 4.1875 -5.515625 C 4.34375 -5.273438 4.421875 -4.976562 4.421875 -4.625 C 4.421875 -4.332031 4.351562 -4.039062 4.21875 -3.75 C 4.082031 -3.46875 3.90625 -3.195312 3.6875 -2.9375 C 3.414062 -2.625 3.125 -2.300781 2.8125 -1.96875 C 2.5 -1.632812 2.175781 -1.3125 1.84375 -1 L 3.53125 -1 C 3.726562 -1 3.878906 -1.046875 3.984375 -1.140625 C 4.097656 -1.242188 4.1875 -1.363281 4.25 -1.5 C 4.320312 -1.632812 4.382812 -1.757812 4.4375 -1.875 C 4.445312 -1.914062 4.492188 -1.9375 4.578125 -1.9375 C 4.609375 -1.9375 4.640625 -1.929688 4.671875 -1.921875 C 4.710938 -1.910156 4.75 -1.894531 4.78125 -1.875 Z M 4.78125 -1.875 "/></g></g></g><g fill="#000000" fill-opacity="1"><g transform="translate(210.151544, 336.749978)"><g><path d="M 2.6875 -6.09375 C 3.082031 -6.09375 3.4375 -5.972656 3.75 -5.734375 C 4.070312 -5.492188 4.328125 -5.144531 4.515625 -4.6875 C 4.710938 -4.238281 4.8125 -3.691406 4.8125 -3.046875 C 4.8125 -2.472656 4.710938 -1.953125 4.515625 -1.484375 C 4.328125 -1.023438 4.070312 -0.65625 3.75 -0.375 C 3.4375 -0.101562 3.082031 0.03125 2.6875 0.03125 C 2.300781 0.03125 1.941406 -0.0859375 1.609375 -0.328125 C 1.273438 -0.566406 1.007812 -0.914062 0.8125 -1.375 C 0.613281 -1.832031 0.515625 -2.390625 0.515625 -3.046875 C 0.515625 -3.472656 0.570312 -3.867188 0.6875 -4.234375 C 0.800781 -4.609375 0.957031 -4.929688 1.15625 -5.203125 C 1.351562 -5.484375 1.582031 -5.703125 1.84375 -5.859375 C 2.113281 -6.015625 2.394531 -6.09375 2.6875 -6.09375 Z M 2.703125 -5.6875 C 2.492188 -5.6875 2.320312 -5.5625 2.1875 -5.3125 C 2.050781 -5.070312 1.945312 -4.742188 1.875 -4.328125 C 1.8125 -3.921875 1.78125 -3.460938 1.78125 -2.953125 C 1.78125 -2.441406 1.820312 -1.992188 1.90625 -1.609375 C 1.988281 -1.222656 2.097656 -0.921875 2.234375 -0.703125 C 2.378906 -0.484375 2.535156 -0.375 2.703125 -0.375 C 2.910156 -0.375 3.070312 -0.503906 3.1875 -0.765625 C 3.3125 -1.023438 3.398438 -1.367188 3.453125 -1.796875 C 3.515625 -2.222656 3.546875 -2.691406 3.546875 -3.203125 C 3.546875 -3.960938 3.472656 -4.566406 3.328125 -5.015625 C 3.179688 -5.460938 2.972656 -5.6875 2.703125 -5.6875 Z M 2.703125 -5.6875 "/></g></g></g><g fill="#000000" fill-opacity="1"><g transform="translate(223.469542, 336.749978)"><g><path d="M 4.78125 -1.875 C 4.75 -1.757812 4.703125 -1.609375 4.640625 -1.421875 C 4.585938 -1.234375 4.53125 -1.039062 4.46875 -0.84375 C 4.40625 -0.644531 4.34375 -0.460938 4.28125 -0.296875 C 4.226562 -0.140625 4.195312 -0.0390625 4.1875 0 L 0.625 0 C 0.601562 -0.03125 0.585938 -0.0625 0.578125 -0.09375 C 0.566406 -0.125 0.554688 -0.15625 0.546875 -0.1875 C 0.804688 -0.457031 1.046875 -0.710938 1.265625 -0.953125 C 1.484375 -1.191406 1.695312 -1.445312 1.90625 -1.71875 C 2.125 -1.988281 2.347656 -2.300781 2.578125 -2.65625 C 2.804688 -3.007812 2.957031 -3.328125 3.03125 -3.609375 C 3.101562 -3.898438 3.140625 -4.15625 3.140625 -4.375 C 3.140625 -4.59375 3.085938 -4.785156 2.984375 -4.953125 C 2.890625 -5.117188 2.765625 -5.253906 2.609375 -5.359375 C 2.453125 -5.460938 2.28125 -5.515625 2.09375 -5.515625 C 1.875 -5.515625 1.6875 -5.457031 1.53125 -5.34375 C 1.375 -5.238281 1.25 -5.128906 1.15625 -5.015625 C 1.0625 -4.898438 1.003906 -4.832031 0.984375 -4.8125 C 0.953125 -4.8125 0.90625 -4.832031 0.84375 -4.875 C 0.789062 -4.914062 0.765625 -4.972656 0.765625 -5.046875 C 0.804688 -5.140625 0.878906 -5.253906 0.984375 -5.390625 C 1.097656 -5.523438 1.238281 -5.660156 1.40625 -5.796875 C 1.570312 -5.929688 1.765625 -6.039062 1.984375 -6.125 C 2.203125 -6.21875 2.445312 -6.265625 2.71875 -6.265625 C 3.03125 -6.265625 3.3125 -6.203125 3.5625 -6.078125 C 3.820312 -5.953125 4.03125 -5.765625 4.1875 -5.515625 C 4.34375 -5.273438 4.421875 -4.976562 4.421875 -4.625 C 4.421875 -4.332031 4.351562 -4.039062 4.21875 -3.75 C 4.082031 -3.46875 3.90625 -3.195312 3.6875 -2.9375 C 3.414062 -2.625 3.125 -2.300781 2.8125 -1.96875 C 2.5 -1.632812 2.175781 -1.3125 1.84375 -1 L 3.53125 -1 C 3.726562 -1 3.878906 -1.046875 3.984375 -1.140625 C 4.097656 -1.242188 4.1875 -1.363281 4.25 -1.5 C 4.320312 -1.632812 4.382812 -1.757812 4.4375 -1.875 C 4.445312 -1.914062 4.492188 -1.9375 4.578125 -1.9375 C 4.609375 -1.9375 4.640625 -1.929688 4.671875 -1.921875 C 4.710938 -1.910156 4.75 -1.894531 4.78125 -1.875 Z M 4.78125 -1.875 "/></g></g></g><g fill="#000000" fill-opacity="1"><g transform="translate(236.78754, 336.749978)"><g><path d="M 2.703125 -4.125 C 3.023438 -4.125 3.335938 -4.039062 3.640625 -3.875 C 3.941406 -3.707031 4.1875 -3.476562 4.375 -3.1875 C 4.5625 -2.90625 4.65625 -2.59375 4.65625 -2.25 C 4.65625 -1.90625 4.582031 -1.585938 4.4375 -1.296875 C 4.289062 -1.015625 4.09375 -0.769531 3.84375 -0.5625 C 3.601562 -0.363281 3.328125 -0.207031 3.015625 -0.09375 C 2.710938 0.0078125 2.40625 0.0625 2.09375 0.0625 C 1.78125 0.0625 1.507812 0.0195312 1.28125 -0.0625 C 1.050781 -0.144531 0.882812 -0.222656 0.78125 -0.296875 C 0.75 -0.347656 0.71875 -0.421875 0.6875 -0.515625 C 0.664062 -0.609375 0.65625 -0.675781 0.65625 -0.71875 C 0.65625 -0.832031 0.695312 -0.945312 0.78125 -1.0625 C 0.875 -1.175781 1.003906 -1.234375 1.171875 -1.234375 C 1.304688 -1.234375 1.425781 -1.179688 1.53125 -1.078125 C 1.632812 -0.972656 1.722656 -0.875 1.796875 -0.78125 C 1.890625 -0.675781 1.992188 -0.578125 2.109375 -0.484375 C 2.234375 -0.390625 2.359375 -0.34375 2.484375 -0.34375 C 2.796875 -0.34375 3.023438 -0.460938 3.171875 -0.703125 C 3.328125 -0.953125 3.40625 -1.296875 3.40625 -1.734375 C 3.40625 -2.035156 3.332031 -2.296875 3.1875 -2.515625 C 3.039062 -2.734375 2.863281 -2.898438 2.65625 -3.015625 C 2.445312 -3.140625 2.25 -3.203125 2.0625 -3.203125 C 1.75 -3.203125 1.53125 -3.179688 1.40625 -3.140625 C 1.289062 -3.109375 1.207031 -3.082031 1.15625 -3.0625 C 1.132812 -3.0625 1.113281 -3.085938 1.09375 -3.140625 C 1.070312 -3.191406 1.0625 -3.234375 1.0625 -3.265625 C 1.0625 -3.265625 1.078125 -3.347656 1.109375 -3.515625 C 1.140625 -3.691406 1.179688 -3.90625 1.234375 -4.15625 C 1.285156 -4.414062 1.332031 -4.679688 1.375 -4.953125 C 1.425781 -5.234375 1.472656 -5.484375 1.515625 -5.703125 C 1.566406 -5.929688 1.597656 -6.097656 1.609375 -6.203125 L 3.34375 -6.203125 C 3.550781 -6.203125 3.738281 -6.21875 3.90625 -6.25 C 4.070312 -6.28125 4.1875 -6.300781 4.25 -6.3125 C 4.28125 -6.300781 4.304688 -6.285156 4.328125 -6.265625 C 4.359375 -6.253906 4.375 -6.222656 4.375 -6.171875 C 4.375 -6.117188 4.347656 -6.023438 4.296875 -5.890625 C 4.242188 -5.753906 4.1875 -5.617188 4.125 -5.484375 C 4.070312 -5.359375 4.035156 -5.273438 4.015625 -5.234375 C 3.753906 -5.203125 3.5 -5.179688 3.25 -5.171875 C 3 -5.171875 2.765625 -5.164062 2.546875 -5.15625 C 2.390625 -5.15625 2.253906 -5.15625 2.140625 -5.15625 C 2.023438 -5.15625 1.941406 -5.15625 1.890625 -5.15625 C 1.878906 -5.125 1.863281 -5.046875 1.84375 -4.921875 C 1.820312 -4.804688 1.796875 -4.675781 1.765625 -4.53125 C 1.742188 -4.382812 1.722656 -4.257812 1.703125 -4.15625 C 1.679688 -4.050781 1.671875 -4 1.671875 -4 C 1.785156 -4.03125 1.941406 -4.054688 2.140625 -4.078125 C 2.335938 -4.109375 2.523438 -4.125 2.703125 -4.125 Z M 2.703125 -4.125 "/></g></g></g></svg>