<svg xmlns="http://www.w3.org/2000/svg" xmlns:xlink="http://www.w3.org/1999/xlink" width="7900" zoomAndPan="magnify" viewBox="0 0 5925 1811.999924" height="2416" preserveAspectRatio="xMidYMid meet" version="1.0"><defs><g/><clipPath id="0458431a19"><path d="M 2086 181.199219 L 3416 181.199219 L 3416 1149.449219 L 2086 1149.449219 Z M 2086 181.199219 " clip-rule="nonzero"/></clipPath><clipPath id="ab5b4c967f"><path d="M 2121.316406 1164.132812 L 3438.960938 1164.132812 L 3438.960938 1461.851562 L 2121.316406 1461.851562 Z M 2121.316406 1164.132812 " clip-rule="nonzero"/></clipPath><clipPath id="3551931864"><path d="M 3362.730469 1164.132812 L 3438.875 1240.277344 L 3438.875 1385.707031 L 3362.730469 1461.851562 L 2197.460938 1461.851562 L 2121.316406 1385.707031 L 2121.316406 1240.277344 L 2197.460938 1164.132812 Z M 3362.730469 1164.132812 " clip-rule="nonzero"/></clipPath><clipPath id="922ae85643"><path d="M 2121.324219 1164.132812 L 3439 1164.132812 L 3439 1461.882812 L 2121.324219 1461.882812 Z M 2121.324219 1164.132812 " clip-rule="nonzero"/></clipPath><clipPath id="a7e0d03229"><path d="M 3362.714844 1164.132812 L 3438.859375 1240.277344 L 3438.859375 1385.703125 L 3362.714844 1461.847656 L 2197.464844 1461.847656 L 2121.324219 1385.703125 L 2121.324219 1240.277344 L 2197.464844 1164.132812 Z M 3362.714844 1164.132812 " clip-rule="nonzero"/></clipPath></defs><g clip-path="url(#0458431a19)"><path fill="#ffffff" d="M 2328.878906 181.199219 L 2593.21875 410.957031 L 2593.21875 428.265625 C 2588.289062 430.726562 2585.796875 433.191406 2583.332031 435.65625 L 2580.871094 433.191406 C 2561.097656 413.421875 2528.980469 413.421875 2511.703125 433.191406 L 2467.238281 475.195312 C 2459.816406 485.078125 2454.890625 494.964844 2452.425781 507.3125 L 2440.078125 504.851562 L 2432.65625 460.382812 L 2385.722656 457.890625 L 2380.796875 410.957031 L 2336.328125 406.03125 L 2333.867188 359.070312 L 2291.863281 351.648438 L 2294.324219 309.644531 L 2254.753906 302.253906 L 2257.21875 262.714844 Z M 3154.015625 1001.382812 L 3260.257812 828.4375 L 3287.417969 845.746094 L 3181.179688 1018.65625 Z M 3188.597656 1023.613281 L 3294.839844 850.671875 C 3339.308594 875.371094 3396.125 909.984375 3415.894531 947.027344 L 3383.773438 996.421875 C 3366.46875 976.652344 3359.078125 971.726562 3334.351562 956.914062 C 3354.121094 976.683594 3368.933594 996.421875 3373.859375 1016.222656 L 3344.203125 1060.691406 C 3331.855469 1053.300781 3324.433594 1048.34375 3309.621094 1043.414062 C 3319.507812 1053.300781 3331.855469 1063.183594 3334.320312 1077.996094 L 3304.664062 1124.929688 C 3282.460938 1080.460938 3230.601562 1050.804688 3188.597656 1023.613281 Z M 3119.433594 833.398438 C 3124.363281 833.398438 3126.855469 835.859375 3129.320312 835.859375 C 3166.367188 850.671875 3205.90625 840.789062 3225.675781 818.554688 C 3233.097656 811.164062 3240.488281 816.089844 3245.445312 818.554688 L 3255.332031 823.480469 L 3200.976562 909.953125 L 3146.625 996.421875 L 3136.742188 991.496094 C 3131.785156 986.539062 3129.320312 979.148438 3131.785156 966.796875 C 3139.203125 939.609375 3129.320312 905.023438 3102.128906 880.328125 C 3102.128906 880.328125 3099.664062 877.863281 3097.199219 875.402344 C 3104.621094 870.472656 3112.011719 860.589844 3114.476562 848.238281 Z M 3309.652344 564.128906 L 3324.464844 569.085938 L 3322 556.738281 L 3373.859375 512.269531 C 3344.203125 502.386719 3312.117188 502.386719 3272.574219 517.199219 Z M 3228.140625 620.945312 L 3200.949219 586.363281 L 3235.53125 559.171875 L 3262.691406 593.753906 Z M 3163.902344 583.898438 C 3191.0625 556.707031 3218.253906 529.546875 3245.414062 499.890625 L 3319.507812 593.785156 L 3361.511719 611.089844 C 3378.816406 596.25 3398.554688 581.4375 3415.863281 566.625 C 3415.863281 603.667969 3396.09375 667.90625 3356.582031 677.792969 C 3339.308594 682.75 3309.652344 677.792969 3277.535156 672.863281 C 3245.414062 665.441406 3210.832031 658.050781 3178.714844 653.09375 L 3131.785156 665.441406 C 3131.785156 662.980469 3131.785156 658.023438 3131.785156 653.09375 L 3116.972656 596.277344 Z M 3233.066406 633.292969 L 3275.070312 598.710938 C 3277.535156 596.25 3277.535156 593.753906 3275.070312 588.828125 L 3242.953125 546.824219 C 3240.488281 544.359375 3235.53125 544.359375 3233.066406 546.824219 L 3191.0625 581.40625 C 3188.597656 583.871094 3186.105469 586.363281 3188.597656 588.828125 L 3223.179688 630.832031 C 3225.644531 635.757812 3230.601562 635.757812 3233.066406 633.292969 Z M 3262.722656 260.25 C 3272.605469 292.367188 3265.183594 331.878906 3238.023438 359.070312 C 3210.863281 388.722656 3168.859375 396.144531 3131.785156 386.261719 L 3047.777344 475.195312 L 3045.3125 475.195312 L 3003.308594 433.191406 C 2998.382812 425.769531 2988.496094 420.84375 2981.074219 418.378906 L 3070.007812 326.949219 C 3055.167969 289.90625 3062.589844 247.902344 3089.78125 218.246094 C 3114.476562 191.054688 3151.554688 181.199219 3186.136719 188.589844 L 3176.25 198.476562 L 3126.824219 252.828125 L 3134.246094 280.019531 L 3144.132812 309.675781 L 3173.785156 317.097656 L 3203.441406 324.515625 L 3252.835938 270.164062 Z M 2454.890625 924.796875 L 2304.179688 1001.382812 C 2291.832031 1008.800781 2291.832031 1023.613281 2299.253906 1035.964844 C 2306.675781 1048.3125 2321.488281 1053.269531 2331.371094 1048.3125 L 2358.53125 1090.316406 L 2259.714844 1149.625 L 2232.550781 1105.160156 C 2244.902344 1100.230469 2247.363281 1082.925781 2239.972656 1070.574219 C 2232.550781 1058.226562 2217.738281 1053.300781 2205.390625 1060.691406 C 2185.621094 1023.644531 2168.34375 993.992188 2158.460938 969.292969 C 2148.574219 947.058594 2146.113281 927.289062 2143.648438 905.054688 C 2143.648438 892.707031 2143.648438 868.011719 2151.070312 848.238281 C 2163.417969 816.121094 2183.1875 788.960938 2195.535156 798.84375 C 2198 803.804688 2183.1875 840.847656 2198 877.894531 C 2207.886719 905.054688 2242.46875 947.058594 2262.238281 934.710938 L 2398.101562 843.3125 L 2398.101562 848.238281 C 2405.523438 875.402344 2432.6875 890.242188 2459.878906 885.285156 L 2462.339844 882.820312 C 2464.804688 887.78125 2467.269531 892.707031 2469.761719 895.171875 L 2467.296875 897.632812 C 2459.816406 905.054688 2454.890625 914.910156 2454.890625 924.796875 Z M 2385.695312 645.644531 L 2314.066406 638.222656 L 2311.601562 665.414062 C 2311.601562 680.226562 2296.789062 692.574219 2279.484375 692.574219 L 2205.359375 685.152344 C 2202.898438 685.152344 2200.433594 682.6875 2197.941406 682.6875 L 2197.941406 687.617188 C 2195.476562 697.5 2185.589844 704.921875 2175.707031 704.921875 C 2165.820312 702.457031 2155.9375 695.039062 2158.429688 682.6875 L 2160.894531 653.035156 L 2099.121094 648.105469 C 2091.699219 645.644531 2086.773438 640.714844 2086.773438 633.292969 C 2089.234375 628.335938 2094.191406 623.410156 2099.121094 623.410156 L 2163.359375 630.832031 L 2165.820312 608.597656 L 2168.285156 583.898438 L 2104.046875 578.941406 C 2099.121094 576.476562 2094.164062 571.519531 2094.164062 564.128906 C 2094.164062 559.203125 2101.582031 554.246094 2106.511719 554.246094 L 2170.75 561.636719 L 2173.210938 531.980469 C 2175.675781 522.09375 2183.097656 512.242188 2195.445312 514.703125 C 2205.332031 514.703125 2215.214844 524.589844 2212.722656 536.9375 L 2212.722656 539.402344 C 2215.183594 539.402344 2217.679688 539.402344 2220.144531 539.402344 L 2294.265625 546.824219 C 2311.570312 549.285156 2323.921875 564.128906 2321.457031 581.40625 L 2318.992188 608.597656 L 2393.117188 616.019531 Z M 2353.574219 223.203125 C 2348.617188 218.277344 2338.761719 218.277344 2331.339844 225.667969 C 2326.382812 233.089844 2326.382812 242.972656 2333.804688 247.902344 C 2341.226562 252.828125 2351.113281 252.828125 2356.039062 245.4375 C 2360.996094 240.480469 2360.996094 230.59375 2353.574219 223.203125 Z M 2353.574219 223.203125 " fill-opacity="1" fill-rule="evenodd"/></g><path fill="#ffffff" d="M 3060.125 742 C 3060.125 744.460938 3060.125 749.421875 3057.660156 754.347656 L 3087.316406 761.769531 C 3097.199219 764.234375 3102.128906 774.117188 3099.664062 781.539062 L 3084.820312 840.820312 C 3082.359375 850.703125 3072.472656 855.660156 3062.589844 853.167969 L 3032.933594 845.746094 C 3025.542969 865.515625 3015.65625 882.792969 3003.277344 900.097656 L 3023.046875 919.867188 C 3030.46875 927.257812 3030.46875 939.636719 3023.046875 944.566406 L 2981.042969 989.03125 C 2973.625 993.992188 2963.738281 993.992188 2956.347656 989.03125 L 2934.113281 966.800781 C 2919.300781 979.148438 2899.53125 989.03125 2879.761719 998.917969 L 2887.183594 1028.574219 C 2889.644531 1035.992188 2884.71875 1045.878906 2874.835938 1048.34375 L 2818.019531 1063.15625 C 2808.132812 1065.648438 2798.25 1060.691406 2795.785156 1053.269531 L 2788.363281 1023.613281 C 2768.59375 1026.109375 2746.359375 1026.109375 2726.589844 1023.613281 L 2716.703125 1053.269531 C 2714.242188 1060.660156 2706.820312 1065.617188 2696.933594 1063.15625 L 2637.65625 1048.34375 C 2630.234375 1045.878906 2622.84375 1035.992188 2625.304688 1028.574219 L 2632.726562 998.917969 C 2615.453125 989.03125 2595.683594 979.148438 2578.375 966.800781 L 2558.605469 989.03125 C 2551.183594 993.992188 2541.300781 993.992188 2533.90625 989.03125 L 2489.441406 944.566406 C 2484.511719 939.609375 2484.511719 927.257812 2489.441406 919.867188 L 2511.675781 900.097656 C 2499.324219 882.792969 2489.441406 865.515625 2479.554688 845.746094 L 2452.394531 853.167969 C 2442.511719 855.628906 2432.625 850.703125 2430.160156 840.820312 L 2415.347656 781.539062 C 2412.886719 774.117188 2417.8125 764.234375 2427.699219 761.769531 L 2454.890625 754.347656 C 2454.890625 749.421875 2454.890625 744.460938 2454.890625 742 L 2521.589844 712.34375 C 2521.589844 734.578125 2524.054688 759.273438 2529.011719 781.539062 C 2563.59375 907.519531 2692.066406 981.640625 2818.046875 949.523438 C 2926.753906 919.898438 2995.917969 818.585938 2990.992188 712.34375 Z M 3060.125 742 " fill-opacity="1" fill-rule="evenodd"/><path fill="#ffffff" d="M 2889.675781 448.003906 C 2904.488281 457.890625 2921.796875 465.308594 2934.144531 475.164062 L 2956.378906 455.394531 C 2963.800781 447.972656 2973.683594 447.972656 2981.074219 455.394531 L 3023.078125 497.398438 C 3030.5 504.820312 3030.5 514.703125 3023.078125 522.09375 L 3003.308594 544.328125 C 3015.65625 559.140625 3025.542969 578.910156 3032.964844 598.679688 L 3062.617188 591.261719 C 3072.503906 588.796875 3082.390625 593.722656 3084.851562 603.609375 L 3099.695312 660.425781 C 3102.160156 670.308594 3097.230469 680.195312 3087.347656 682.660156 L 3057.691406 690.078125 L 3060.15625 699.964844 L 3099.695312 724.660156 L 2756.304688 571.488281 L 2415.378906 724.660156 L 2454.917969 699.964844 L 2454.917969 690.078125 L 2427.726562 682.660156 C 2417.84375 680.164062 2412.914062 670.308594 2415.378906 660.425781 L 2430.191406 603.609375 C 2432.65625 593.722656 2442.539062 588.796875 2452.425781 591.261719 L 2479.585938 598.679688 C 2489.472656 578.910156 2499.355469 561.605469 2511.703125 544.328125 L 2489.472656 522.09375 C 2484.542969 514.675781 2484.542969 504.820312 2489.472656 497.398438 L 2533.9375 455.394531 C 2541.359375 447.972656 2551.246094 447.972656 2558.636719 455.394531 L 2578.40625 475.164062 C 2593.21875 465.28125 2608.0625 457.859375 2625.335938 448.003906 L 2625.335938 255.292969 L 2593.21875 255.292969 L 2593.21875 218.246094 L 2687.109375 218.246094 C 2687.109375 312.109375 2687.109375 403.535156 2687.109375 497.398438 C 2610.523438 522.09375 2553.707031 581.40625 2531.476562 653.035156 L 2756.304688 517.167969 L 2981.105469 653.035156 C 2958.871094 576.449219 2899.59375 519.632812 2827.933594 497.398438 C 2827.933594 403.535156 2827.933594 312.109375 2827.933594 218.246094 L 2921.796875 218.246094 L 2921.796875 255.292969 L 2889.675781 255.292969 Z M 2889.675781 448.003906 " fill-opacity="1" fill-rule="evenodd"/><path fill="#ffffff" d="M 2771.085938 798.816406 L 2830.367188 798.816406 L 2830.367188 858.09375 L 2771.085938 858.09375 Z M 2771.085938 712.34375 L 2830.367188 712.34375 L 2830.367188 771.652344 L 2771.085938 771.652344 Z M 2684.617188 712.34375 L 2743.894531 712.34375 L 2743.894531 771.652344 L 2684.617188 771.652344 Z M 2684.617188 798.816406 L 2743.894531 798.816406 L 2743.894531 858.09375 L 2684.617188 858.09375 Z M 2684.617188 798.816406 " fill-opacity="1" fill-rule="evenodd"/><path fill="#ffffff" d="M 2541.328125 704.953125 L 2756.273438 615.988281 L 2973.652344 704.953125 L 2756.273438 640.714844 Z M 2541.328125 704.953125 " fill-opacity="1" fill-rule="evenodd"/><g clip-path="url(#ab5b4c967f)"><g clip-path="url(#3551931864)"><path fill="#ffffff" d="M 2121.316406 1164.132812 L 3438.960938 1164.132812 L 3438.960938 1461.851562 L 2121.316406 1461.851562 Z M 2121.316406 1164.132812 " fill-opacity="1" fill-rule="nonzero"/></g></g><g clip-path="url(#922ae85643)"><g clip-path="url(#a7e0d03229)"><path stroke-linecap="butt" transform="matrix(0.75, 0, 0, 0.75, 2121.322459, 1164.132095)" fill="none" stroke-linejoin="miter" d="M 1655.189985 0.000956938 L 1756.716035 101.527007 L 1756.716035 295.428065 L 1655.189985 396.954115 L 101.523188 396.954115 L 0.0023466 295.428065 L 0.0023466 101.527007 L 101.523188 0.000956938 Z M 1655.189985 0.000956938 " stroke="#ffffff" stroke-width="38" stroke-opacity="1" stroke-miterlimit="4"/></g></g><g fill="#000000" fill-opacity="1"><g transform="translate(2411.385215, 1363.805592)"><g><path d="M 130.171875 -91.296875 L 130.171875 -116.828125 L 75.265625 -116.828125 L 75.265625 -91.296875 L 82.78125 -87.953125 L 82.78125 -69.09375 L 54.578125 -69.09375 L 54.578125 -87.953125 L 62.25 -91.296875 L 62.25 -116.828125 L 7.34375 -116.828125 L 7.34375 -91.296875 L 20.03125 -87.953125 L 20.03125 -28.703125 L 7.34375 -25.375 L 7.34375 0 L 62.25 0 L 62.25 -25.375 L 54.578125 -28.703125 L 54.578125 -49.0625 L 82.78125 -49.0625 L 82.78125 -28.703125 L 75.265625 -25.375 L 75.265625 0 L 130.171875 0 L 130.171875 -25.375 L 117.484375 -28.703125 L 117.484375 -87.953125 Z M 130.171875 -91.296875 "/></g></g></g><g fill="#000000" fill-opacity="1"><g transform="translate(2551.723709, 1363.805592)"><g><path d="M 111.984375 -28.703125 L 89.453125 -116.828125 L 22.03125 -116.828125 L 22.03125 -91.296875 L 32.875 -87.953125 L 15.859375 -28.703125 L 3 -25.375 L 3 0 L 53.078125 0 L 53.078125 -25.375 L 44.890625 -28.703125 L 47.734375 -39.046875 L 72.9375 -39.046875 L 75.9375 -28.703125 L 67.09375 -25.375 L 67.09375 0 L 126.34375 0 L 126.34375 -25.375 Z M 59.90625 -85.28125 L 67.421875 -59.078125 L 52.578125 -59.078125 Z M 59.90625 -85.28125 "/></g></g></g><g fill="#000000" fill-opacity="1"><g transform="translate(2683.551803, 1363.805592)"><g><path d="M 79.4375 -116.828125 L 79.4375 -91.296875 L 92.125 -87.953125 L 92.125 -54.40625 L 57.40625 -116.828125 L 7.34375 -116.828125 L 7.34375 -91.296875 L 20.03125 -87.953125 L 20.03125 -28.703125 L 7.34375 -25.375 L 7.34375 0 L 61.921875 0 L 61.921875 -25.375 L 49.234375 -28.703125 L 49.234375 -65.09375 L 87.78125 0 L 121.5 0 L 121.5 -87.953125 L 134.1875 -91.296875 L 134.1875 -116.828125 Z M 79.4375 -116.828125 "/></g></g></g><g fill="#000000" fill-opacity="1"><g transform="translate(2823.05596, 1363.805592)"><g><path d="M 117.65625 -25.03125 L 117.65625 -92.625 L 88.453125 -116.828125 L 7.34375 -116.828125 L 7.34375 -91.296875 L 20.03125 -87.953125 L 20.03125 -28.703125 L 7.34375 -25.375 L 7.34375 0 L 87.625 0 Z M 54.578125 -87.953125 L 76.109375 -87.953125 L 83.109375 -82.109375 L 83.109375 -34.71875 L 75.765625 -28.703125 L 54.578125 -28.703125 Z M 54.578125 -87.953125 "/></g></g></g><g fill="#000000" fill-opacity="1"><g transform="translate(2950.545401, 1363.805592)"><g><path d="M 71.09375 -91.296875 L 71.09375 -116.828125 L 11.34375 -116.828125 L 11.34375 -91.296875 L 24.03125 -87.953125 L 24.03125 -28.703125 L 11.34375 -25.375 L 11.34375 0 L 71.09375 0 L 71.09375 -25.375 L 58.40625 -28.703125 L 58.40625 -87.953125 Z M 71.09375 -91.296875 "/></g></g></g><g fill="#000000" fill-opacity="1"><g transform="translate(3035.81659, 1363.805592)"><g><path d="M 105.640625 -20.859375 L 105.640625 -96.46875 L 81.28125 -116.828125 L 31.703125 -116.828125 L 7.34375 -96.46875 L 7.34375 -20.859375 L 32.546875 0 L 64.421875 0 L 81.28125 28.703125 L 112.984375 28.703125 L 112.984375 1.671875 L 104.140625 0 L 95.96875 -12.84375 Z M 66.75 -87.953125 L 71.265625 -84.453125 L 71.265625 -32.546875 L 66.59375 -28.703125 L 46.390625 -28.703125 L 41.71875 -32.546875 L 41.71875 -84.453125 L 46.234375 -87.953125 Z M 66.75 -87.953125 "/></g></g></g><g fill="#ffffff" fill-opacity="1"><g transform="translate(2544.93182, 1549.752613)"><g><path d="M 8.546875 -31.015625 C 8.929688 -31.015625 9.613281 -31.019531 10.59375 -31.03125 C 11.582031 -31.050781 12.710938 -31.078125 13.984375 -31.109375 C 15.253906 -31.140625 16.550781 -31.160156 17.875 -31.171875 C 19.195312 -31.191406 20.394531 -31.21875 21.46875 -31.25 C 22.550781 -31.289062 23.367188 -31.3125 23.921875 -31.3125 C 24.078125 -30.113281 24.28125 -28.914062 24.53125 -27.71875 C 24.789062 -26.53125 25.035156 -25.40625 25.265625 -24.34375 C 25.203125 -24.28125 25.039062 -24.222656 24.78125 -24.171875 C 24.519531 -24.128906 24.3125 -24.109375 24.15625 -24.109375 C 23.769531 -24.109375 23.53125 -24.238281 23.4375 -24.5 C 22.914062 -25.8125 22.289062 -26.925781 21.5625 -27.84375 C 20.84375 -28.769531 19.757812 -29.234375 18.3125 -29.234375 L 14.390625 -29.234375 C 13.878906 -29.234375 13.390625 -29.207031 12.921875 -29.15625 C 12.453125 -29.101562 12.15625 -28.953125 12.03125 -28.703125 C 11.9375 -28.441406 11.878906 -28.117188 11.859375 -27.734375 C 11.847656 -27.347656 11.84375 -26.894531 11.84375 -26.375 C 11.84375 -26.28125 11.84375 -26.179688 11.84375 -26.078125 C 11.84375 -25.984375 11.84375 -25.890625 11.84375 -25.796875 L 11.84375 -17.34375 C 11.84375 -17.21875 12.050781 -17.101562 12.46875 -17 C 12.882812 -16.90625 13.347656 -16.859375 13.859375 -16.859375 L 16.328125 -16.859375 C 17.265625 -16.859375 17.984375 -16.9375 18.484375 -17.09375 C 18.984375 -17.257812 19.375 -17.582031 19.65625 -18.0625 C 19.945312 -18.550781 20.222656 -19.242188 20.484375 -20.140625 C 20.546875 -20.398438 20.738281 -20.53125 21.0625 -20.53125 C 21.476562 -20.53125 21.769531 -20.453125 21.9375 -20.296875 L 21.9375 -11.203125 C 21.90625 -11.171875 21.800781 -11.140625 21.625 -11.109375 C 21.445312 -11.078125 21.273438 -11.0625 21.109375 -11.0625 C 20.691406 -11.0625 20.46875 -11.175781 20.4375 -11.40625 C 20.144531 -12.53125 19.851562 -13.269531 19.5625 -13.625 C 19.269531 -13.976562 19.015625 -14.203125 18.796875 -14.296875 C 18.242188 -14.523438 17.050781 -14.640625 15.21875 -14.640625 C 14.800781 -14.640625 14.328125 -14.625 13.796875 -14.59375 C 13.265625 -14.5625 12.804688 -14.492188 12.421875 -14.390625 C 12.035156 -14.296875 11.84375 -14.15625 11.84375 -13.96875 L 11.84375 -6.671875 C 11.84375 -6.671875 11.84375 -6.640625 11.84375 -6.578125 C 11.84375 -6.410156 11.84375 -6.09375 11.84375 -5.625 C 11.84375 -5.15625 11.863281 -4.660156 11.90625 -4.140625 C 11.957031 -3.628906 12.046875 -3.234375 12.171875 -2.953125 C 12.335938 -2.628906 12.738281 -2.382812 13.375 -2.21875 C 14.019531 -2.0625 14.648438 -1.984375 15.265625 -1.984375 L 18.359375 -1.984375 C 19.265625 -1.984375 20.09375 -2.109375 20.84375 -2.359375 C 21.601562 -2.617188 22.238281 -3.007812 22.75 -3.53125 C 23.269531 -4.039062 23.722656 -4.648438 24.109375 -5.359375 C 24.492188 -6.066406 24.894531 -6.953125 25.3125 -8.015625 C 25.375 -8.210938 25.582031 -8.3125 25.9375 -8.3125 C 26.195312 -8.3125 26.488281 -8.273438 26.8125 -8.203125 C 27.132812 -8.140625 27.328125 -8.078125 27.390625 -8.015625 C 27.097656 -7.179688 26.773438 -6.265625 26.421875 -5.265625 C 26.066406 -4.265625 25.742188 -3.296875 25.453125 -2.359375 C 25.171875 -1.429688 24.960938 -0.613281 24.828125 0.09375 C 24.503906 0.09375 23.765625 0.09375 22.609375 0.09375 C 21.453125 0.09375 20.050781 0.09375 18.40625 0.09375 C 16.757812 0.09375 15.039062 0.09375 13.25 0.09375 C 11.46875 0.09375 9.765625 0.09375 8.140625 0.09375 C 6.515625 0.09375 5.128906 0.0976562 3.984375 0.109375 C 2.835938 0.128906 2.101562 0.140625 1.78125 0.140625 C 1.6875 -0.015625 1.628906 -0.300781 1.609375 -0.71875 C 1.597656 -1.144531 1.65625 -1.4375 1.78125 -1.59375 C 2.007812 -1.625 2.347656 -1.660156 2.796875 -1.703125 C 3.253906 -1.753906 3.691406 -1.835938 4.109375 -1.953125 C 4.523438 -2.066406 4.765625 -2.222656 4.828125 -2.421875 C 5.023438 -2.898438 5.140625 -3.507812 5.171875 -4.25 C 5.203125 -4.988281 5.21875 -5.859375 5.21875 -6.859375 L 5.21875 -24.203125 C 5.21875 -25.234375 5.203125 -26.109375 5.171875 -26.828125 C 5.140625 -27.554688 5.023438 -28.164062 4.828125 -28.65625 C 4.765625 -28.875 4.523438 -29.03125 4.109375 -29.125 C 3.691406 -29.226562 3.253906 -29.296875 2.796875 -29.328125 C 2.347656 -29.359375 2.007812 -29.375 1.78125 -29.375 C 1.65625 -29.53125 1.597656 -29.832031 1.609375 -30.28125 C 1.628906 -30.738281 1.6875 -31.03125 1.78125 -31.15625 C 2.84375 -31.09375 3.984375 -31.050781 5.203125 -31.03125 C 6.429688 -31.019531 7.546875 -31.015625 8.546875 -31.015625 Z M 8.546875 -31.015625 "/></g></g></g><g fill="#ffffff" fill-opacity="1"><g transform="translate(2611.940938, 1549.752613)"><g><path d="M 12.609375 -31.59375 C 14.023438 -31.59375 15.335938 -31.457031 16.546875 -31.1875 C 17.753906 -30.914062 19.082031 -30.617188 20.53125 -30.296875 C 20.65625 -29.035156 20.757812 -27.773438 20.84375 -26.515625 C 20.925781 -25.265625 21 -23.914062 21.0625 -22.46875 C 20.9375 -22.269531 20.757812 -22.171875 20.53125 -22.171875 C 20.53125 -22.171875 20.515625 -22.171875 20.484375 -22.171875 C 20.359375 -22.171875 20.109375 -22.175781 19.734375 -22.1875 C 19.367188 -22.207031 19.164062 -22.316406 19.125 -22.515625 C 19.03125 -23.191406 18.820312 -23.929688 18.5 -24.734375 C 18.175781 -25.535156 17.738281 -26.304688 17.1875 -27.046875 C 16.644531 -27.796875 16.007812 -28.410156 15.28125 -28.890625 C 14.5625 -29.367188 13.75 -29.609375 12.84375 -29.609375 C 12.238281 -29.609375 11.628906 -29.488281 11.015625 -29.25 C 10.398438 -29.007812 9.882812 -28.59375 9.46875 -28 C 9.050781 -27.40625 8.84375 -26.578125 8.84375 -25.515625 C 8.84375 -24.546875 9.210938 -23.601562 9.953125 -22.6875 C 10.691406 -21.769531 11.582031 -20.914062 12.625 -20.125 C 13.675781 -19.332031 14.6875 -18.613281 15.65625 -17.96875 C 16.6875 -17.289062 17.738281 -16.554688 18.8125 -15.765625 C 19.894531 -14.984375 20.796875 -14.003906 21.515625 -12.828125 C 22.242188 -11.648438 22.609375 -10.128906 22.609375 -8.265625 C 22.609375 -6.554688 22.109375 -5.039062 21.109375 -3.71875 C 20.109375 -2.394531 18.828125 -1.363281 17.265625 -0.625 C 15.703125 0.113281 14.050781 0.484375 12.3125 0.484375 C 10.9375 0.484375 9.445312 0.351562 7.84375 0.09375 C 6.25 -0.164062 4.742188 -0.453125 3.328125 -0.765625 C 3.171875 -1.472656 3.007812 -2.375 2.84375 -3.46875 C 2.6875 -4.570312 2.550781 -5.628906 2.4375 -6.640625 C 2.320312 -7.660156 2.25 -8.378906 2.21875 -8.796875 C 2.320312 -8.953125 2.539062 -9.09375 2.875 -9.21875 C 3.207031 -9.351562 3.441406 -9.421875 3.578125 -9.421875 C 3.960938 -9.421875 4.171875 -9.304688 4.203125 -9.078125 C 4.296875 -8.429688 4.550781 -7.679688 4.96875 -6.828125 C 5.394531 -5.984375 5.9375 -5.148438 6.59375 -4.328125 C 7.25 -3.503906 8.019531 -2.828125 8.90625 -2.296875 C 9.800781 -1.765625 10.78125 -1.5 11.84375 -1.5 C 13.0625 -1.5 14.128906 -1.84375 15.046875 -2.53125 C 15.960938 -3.226562 16.421875 -4.414062 16.421875 -6.09375 C 16.421875 -6.925781 16.171875 -7.71875 15.671875 -8.46875 C 15.171875 -9.226562 14.550781 -9.929688 13.8125 -10.578125 C 13.070312 -11.222656 12.300781 -11.816406 11.5 -12.359375 C 10.695312 -12.910156 10.003906 -13.378906 9.421875 -13.765625 C 8.296875 -14.535156 7.203125 -15.320312 6.140625 -16.125 C 5.078125 -16.9375 4.210938 -17.890625 3.546875 -18.984375 C 2.890625 -20.078125 2.5625 -21.445312 2.5625 -23.09375 C 2.5625 -24.738281 3.0625 -26.195312 4.0625 -27.46875 C 5.0625 -28.738281 6.332031 -29.742188 7.875 -30.484375 C 9.414062 -31.222656 10.992188 -31.59375 12.609375 -31.59375 Z M 12.609375 -31.59375 "/></g></g></g><g fill="#ffffff" fill-opacity="1"><g transform="translate(2675.134285, 1549.752613)"><g><path d="M 22.796875 -31.015625 C 23.929688 -31.015625 24.796875 -31.085938 25.390625 -31.234375 C 25.984375 -31.378906 26.441406 -31.523438 26.765625 -31.671875 C 27.085938 -31.816406 27.394531 -31.890625 27.6875 -31.890625 C 27.875 -31.890625 27.992188 -31.878906 28.046875 -31.859375 C 28.097656 -31.847656 28.171875 -31.804688 28.265625 -31.734375 L 29.515625 -23.09375 C 29.453125 -23.03125 29.265625 -22.957031 28.953125 -22.875 C 28.648438 -22.789062 28.390625 -22.75 28.171875 -22.75 C 27.878906 -22.75 27.71875 -22.832031 27.6875 -23 C 27.519531 -24.03125 27.191406 -24.992188 26.703125 -25.890625 C 26.222656 -26.796875 25.628906 -27.53125 24.921875 -28.09375 C 24.210938 -28.65625 23.457031 -28.9375 22.65625 -28.9375 L 18.265625 -28.9375 L 18.265625 -6.859375 C 18.265625 -5.859375 18.28125 -4.988281 18.3125 -4.25 C 18.34375 -3.507812 18.457031 -2.898438 18.65625 -2.421875 C 18.75 -2.222656 18.992188 -2.054688 19.390625 -1.921875 C 19.796875 -1.796875 20.222656 -1.707031 20.671875 -1.65625 C 21.128906 -1.613281 21.453125 -1.578125 21.640625 -1.546875 C 21.773438 -1.378906 21.832031 -1.085938 21.8125 -0.671875 C 21.789062 -0.253906 21.734375 0.03125 21.640625 0.1875 C 20.742188 0.09375 19.648438 0.015625 18.359375 -0.046875 C 17.066406 -0.109375 15.921875 -0.140625 14.921875 -0.140625 C 13.929688 -0.140625 12.804688 -0.109375 11.546875 -0.046875 C 10.285156 0.015625 9.191406 0.09375 8.265625 0.1875 C 8.160156 0.03125 8.097656 -0.253906 8.078125 -0.671875 C 8.066406 -1.085938 8.128906 -1.378906 8.265625 -1.546875 C 8.484375 -1.578125 8.8125 -1.613281 9.25 -1.65625 C 9.6875 -1.707031 10.113281 -1.796875 10.53125 -1.921875 C 10.945312 -2.054688 11.1875 -2.222656 11.25 -2.421875 C 11.445312 -2.898438 11.5625 -3.507812 11.59375 -4.25 C 11.625 -4.988281 11.640625 -5.859375 11.640625 -6.859375 L 11.640625 -28.9375 L 7.25 -28.9375 C 6.4375 -28.9375 5.675781 -28.65625 4.96875 -28.09375 C 4.257812 -27.53125 3.664062 -26.796875 3.1875 -25.890625 C 2.707031 -24.992188 2.382812 -24.03125 2.21875 -23 C 2.1875 -22.832031 2.023438 -22.75 1.734375 -22.75 C 1.515625 -22.75 1.25 -22.789062 0.9375 -22.875 C 0.632812 -22.957031 0.453125 -23.03125 0.390625 -23.09375 L 1.640625 -31.734375 C 1.734375 -31.804688 1.804688 -31.847656 1.859375 -31.859375 C 1.910156 -31.878906 2.03125 -31.890625 2.21875 -31.890625 C 2.507812 -31.890625 2.816406 -31.816406 3.140625 -31.671875 C 3.460938 -31.523438 3.921875 -31.378906 4.515625 -31.234375 C 5.109375 -31.085938 5.972656 -31.015625 7.109375 -31.015625 Z M 22.796875 -31.015625 "/></g></g></g><g fill="#ffffff" fill-opacity="1"><g transform="translate(2743.689028, 1549.752613)"><g/></g></g><g fill="#ffffff" fill-opacity="1"><g transform="translate(2796.449393, 1549.752613)"><g><path d="M 23.09375 -9.078125 C 22.96875 -8.535156 22.757812 -7.800781 22.46875 -6.875 C 22.175781 -5.957031 21.875 -5.015625 21.5625 -4.046875 C 21.257812 -3.085938 20.976562 -2.226562 20.71875 -1.46875 C 20.46875 -0.71875 20.3125 -0.226562 20.25 0 L 3.046875 0 C 2.910156 -0.125 2.816406 -0.265625 2.765625 -0.421875 C 2.722656 -0.585938 2.6875 -0.738281 2.65625 -0.875 C 3.882812 -2.226562 5.03125 -3.484375 6.09375 -4.640625 C 7.15625 -5.796875 8.207031 -7.019531 9.25 -8.3125 C 10.300781 -9.601562 11.375 -11.097656 12.46875 -12.796875 C 13.5625 -14.503906 14.285156 -16.054688 14.640625 -17.453125 C 14.992188 -18.859375 15.171875 -20.09375 15.171875 -21.15625 C 15.171875 -22.1875 14.925781 -23.113281 14.4375 -23.9375 C 13.957031 -24.757812 13.335938 -25.410156 12.578125 -25.890625 C 11.828125 -26.378906 11.015625 -26.625 10.140625 -26.625 C 9.046875 -26.625 8.117188 -26.363281 7.359375 -25.84375 C 6.609375 -25.332031 6.015625 -24.800781 5.578125 -24.25 C 5.140625 -23.707031 4.859375 -23.367188 4.734375 -23.234375 C 4.609375 -23.234375 4.40625 -23.335938 4.125 -23.546875 C 3.851562 -23.753906 3.71875 -24.035156 3.71875 -24.390625 C 3.914062 -24.847656 4.269531 -25.40625 4.78125 -26.0625 C 5.300781 -26.726562 5.960938 -27.378906 6.765625 -28.015625 C 7.566406 -28.660156 8.5 -29.203125 9.5625 -29.640625 C 10.625 -30.078125 11.816406 -30.296875 13.140625 -30.296875 C 14.648438 -30.296875 16.023438 -29.988281 17.265625 -29.375 C 18.503906 -28.757812 19.492188 -27.863281 20.234375 -26.6875 C 20.984375 -25.507812 21.359375 -24.070312 21.359375 -22.375 C 21.359375 -20.914062 21.035156 -19.503906 20.390625 -18.140625 C 19.742188 -16.773438 18.875 -15.445312 17.78125 -14.15625 C 16.488281 -12.675781 15.09375 -11.128906 13.59375 -9.515625 C 12.101562 -7.910156 10.550781 -6.347656 8.9375 -4.828125 L 17.046875 -4.828125 C 18.015625 -4.828125 18.765625 -5.0625 19.296875 -5.53125 C 19.828125 -6 20.253906 -6.5625 20.578125 -7.21875 C 20.898438 -7.882812 21.191406 -8.488281 21.453125 -9.03125 C 21.515625 -9.226562 21.738281 -9.328125 22.125 -9.328125 C 22.289062 -9.328125 22.460938 -9.3125 22.640625 -9.28125 C 22.816406 -9.25 22.96875 -9.179688 23.09375 -9.078125 Z M 23.09375 -9.078125 "/></g></g></g><g fill="#ffffff" fill-opacity="1"><g transform="translate(2860.801956, 1549.752613)"><g><path d="M 13 -29.46875 C 14.894531 -29.46875 16.613281 -28.882812 18.15625 -27.71875 C 19.707031 -26.5625 20.941406 -24.890625 21.859375 -22.703125 C 22.773438 -20.515625 23.234375 -17.84375 23.234375 -14.6875 C 23.234375 -11.945312 22.773438 -9.457031 21.859375 -7.21875 C 20.941406 -4.976562 19.707031 -3.191406 18.15625 -1.859375 C 16.613281 -0.523438 14.894531 0.140625 13 0.140625 C 11.125 0.140625 9.378906 -0.4375 7.765625 -1.59375 C 6.160156 -2.75 4.875 -4.4375 3.90625 -6.65625 C 2.945312 -8.882812 2.46875 -11.5625 2.46875 -14.6875 C 2.46875 -16.75 2.75 -18.671875 3.3125 -20.453125 C 3.875 -22.242188 4.632812 -23.816406 5.59375 -25.171875 C 6.5625 -26.523438 7.679688 -27.578125 8.953125 -28.328125 C 10.234375 -29.085938 11.582031 -29.46875 13 -29.46875 Z M 13.046875 -27.484375 C 12.046875 -27.484375 11.210938 -26.894531 10.546875 -25.71875 C 9.890625 -24.550781 9.398438 -22.96875 9.078125 -20.96875 C 8.753906 -18.96875 8.59375 -16.726562 8.59375 -14.25 C 8.59375 -11.800781 8.796875 -9.640625 9.203125 -7.765625 C 9.609375 -5.898438 10.148438 -4.441406 10.828125 -3.390625 C 11.503906 -2.347656 12.242188 -1.828125 13.046875 -1.828125 C 14.078125 -1.828125 14.878906 -2.445312 15.453125 -3.6875 C 16.035156 -4.9375 16.457031 -6.597656 16.71875 -8.671875 C 16.976562 -10.742188 17.109375 -13.003906 17.109375 -15.453125 C 17.109375 -19.160156 16.757812 -22.09375 16.0625 -24.25 C 15.375 -26.40625 14.367188 -27.484375 13.046875 -27.484375 Z M 13.046875 -27.484375 "/></g></g></g><g fill="#ffffff" fill-opacity="1"><g transform="translate(2925.154519, 1549.752613)"><g><path d="M 23.09375 -9.078125 C 22.96875 -8.535156 22.757812 -7.800781 22.46875 -6.875 C 22.175781 -5.957031 21.875 -5.015625 21.5625 -4.046875 C 21.257812 -3.085938 20.976562 -2.226562 20.71875 -1.46875 C 20.46875 -0.71875 20.3125 -0.226562 20.25 0 L 3.046875 0 C 2.910156 -0.125 2.816406 -0.265625 2.765625 -0.421875 C 2.722656 -0.585938 2.6875 -0.738281 2.65625 -0.875 C 3.882812 -2.226562 5.03125 -3.484375 6.09375 -4.640625 C 7.15625 -5.796875 8.207031 -7.019531 9.25 -8.3125 C 10.300781 -9.601562 11.375 -11.097656 12.46875 -12.796875 C 13.5625 -14.503906 14.285156 -16.054688 14.640625 -17.453125 C 14.992188 -18.859375 15.171875 -20.09375 15.171875 -21.15625 C 15.171875 -22.1875 14.925781 -23.113281 14.4375 -23.9375 C 13.957031 -24.757812 13.335938 -25.410156 12.578125 -25.890625 C 11.828125 -26.378906 11.015625 -26.625 10.140625 -26.625 C 9.046875 -26.625 8.117188 -26.363281 7.359375 -25.84375 C 6.609375 -25.332031 6.015625 -24.800781 5.578125 -24.25 C 5.140625 -23.707031 4.859375 -23.367188 4.734375 -23.234375 C 4.609375 -23.234375 4.40625 -23.335938 4.125 -23.546875 C 3.851562 -23.753906 3.71875 -24.035156 3.71875 -24.390625 C 3.914062 -24.847656 4.269531 -25.40625 4.78125 -26.0625 C 5.300781 -26.726562 5.960938 -27.378906 6.765625 -28.015625 C 7.566406 -28.660156 8.5 -29.203125 9.5625 -29.640625 C 10.625 -30.078125 11.816406 -30.296875 13.140625 -30.296875 C 14.648438 -30.296875 16.023438 -29.988281 17.265625 -29.375 C 18.503906 -28.757812 19.492188 -27.863281 20.234375 -26.6875 C 20.984375 -25.507812 21.359375 -24.070312 21.359375 -22.375 C 21.359375 -20.914062 21.035156 -19.503906 20.390625 -18.140625 C 19.742188 -16.773438 18.875 -15.445312 17.78125 -14.15625 C 16.488281 -12.675781 15.09375 -11.128906 13.59375 -9.515625 C 12.101562 -7.910156 10.550781 -6.347656 8.9375 -4.828125 L 17.046875 -4.828125 C 18.015625 -4.828125 18.765625 -5.0625 19.296875 -5.53125 C 19.828125 -6 20.253906 -6.5625 20.578125 -7.21875 C 20.898438 -7.882812 21.191406 -8.488281 21.453125 -9.03125 C 21.515625 -9.226562 21.738281 -9.328125 22.125 -9.328125 C 22.289062 -9.328125 22.460938 -9.3125 22.640625 -9.28125 C 22.816406 -9.25 22.96875 -9.179688 23.09375 -9.078125 Z M 23.09375 -9.078125 "/></g></g></g><g fill="#ffffff" fill-opacity="1"><g transform="translate(2989.507083, 1549.752613)"><g><path d="M 13.09375 -19.953125 C 14.632812 -19.953125 16.128906 -19.539062 17.578125 -18.71875 C 19.035156 -17.894531 20.222656 -16.796875 21.140625 -15.421875 C 22.054688 -14.054688 22.515625 -12.539062 22.515625 -10.875 C 22.515625 -9.195312 22.160156 -7.671875 21.453125 -6.296875 C 20.742188 -4.929688 19.789062 -3.753906 18.59375 -2.765625 C 17.40625 -1.785156 16.078125 -1.03125 14.609375 -0.5 C 13.148438 0.03125 11.660156 0.296875 10.140625 0.296875 C 8.628906 0.296875 7.3125 0.101562 6.1875 -0.28125 C 5.0625 -0.675781 4.253906 -1.066406 3.765625 -1.453125 C 3.609375 -1.671875 3.472656 -2.003906 3.359375 -2.453125 C 3.242188 -2.910156 3.1875 -3.253906 3.1875 -3.484375 C 3.1875 -4.023438 3.394531 -4.578125 3.8125 -5.140625 C 4.226562 -5.703125 4.84375 -5.984375 5.65625 -5.984375 C 6.300781 -5.984375 6.867188 -5.722656 7.359375 -5.203125 C 7.859375 -4.691406 8.304688 -4.210938 8.703125 -3.765625 C 9.148438 -3.253906 9.660156 -2.78125 10.234375 -2.34375 C 10.816406 -1.90625 11.414062 -1.6875 12.03125 -1.6875 C 13.507812 -1.6875 14.617188 -2.273438 15.359375 -3.453125 C 16.097656 -4.628906 16.46875 -6.28125 16.46875 -8.40625 C 16.46875 -9.851562 16.113281 -11.097656 15.40625 -12.140625 C 14.695312 -13.191406 13.835938 -14.003906 12.828125 -14.578125 C 11.816406 -15.160156 10.859375 -15.453125 9.953125 -15.453125 C 8.472656 -15.453125 7.441406 -15.375 6.859375 -15.21875 C 6.273438 -15.0625 5.859375 -14.929688 5.609375 -14.828125 C 5.472656 -14.828125 5.359375 -14.945312 5.265625 -15.1875 C 5.171875 -15.4375 5.125 -15.625 5.125 -15.75 C 5.125 -15.78125 5.203125 -16.207031 5.359375 -17.03125 C 5.523438 -17.851562 5.726562 -18.882812 5.96875 -20.125 C 6.207031 -21.363281 6.445312 -22.648438 6.6875 -23.984375 C 6.925781 -25.316406 7.148438 -26.523438 7.359375 -27.609375 C 7.578125 -28.691406 7.71875 -29.472656 7.78125 -29.953125 L 16.1875 -29.953125 C 17.1875 -29.953125 18.078125 -30.023438 18.859375 -30.171875 C 19.648438 -30.316406 20.207031 -30.421875 20.53125 -30.484375 C 20.65625 -30.453125 20.789062 -30.394531 20.9375 -30.3125 C 21.082031 -30.226562 21.15625 -30.0625 21.15625 -29.8125 C 21.15625 -29.550781 21.023438 -29.085938 20.765625 -28.421875 C 20.515625 -27.765625 20.25 -27.128906 19.96875 -26.515625 C 19.695312 -25.910156 19.5 -25.492188 19.375 -25.265625 C 18.144531 -25.140625 16.914062 -25.0625 15.6875 -25.03125 C 14.46875 -25 13.34375 -24.960938 12.3125 -24.921875 C 11.570312 -24.890625 10.921875 -24.875 10.359375 -24.875 C 9.796875 -24.875 9.382812 -24.875 9.125 -24.875 C 9.09375 -24.75 9.019531 -24.394531 8.90625 -23.8125 C 8.800781 -23.238281 8.679688 -22.601562 8.546875 -21.90625 C 8.421875 -21.21875 8.304688 -20.613281 8.203125 -20.09375 C 8.109375 -19.582031 8.0625 -19.328125 8.0625 -19.328125 C 8.644531 -19.484375 9.410156 -19.625 10.359375 -19.75 C 11.304688 -19.882812 12.21875 -19.953125 13.09375 -19.953125 Z M 13.09375 -19.953125 "/></g></g></g></svg>